# xmcd CD database file
#
# Track frame offsets:
#	150
#	17180
#	34528
#	54678
#	75606
#	92311
#	113640
#	131730
#	147333
#	160975
#	181590
#	197770
#	223939
#	238158
#	260364
#
# Disc length: 3702 seconds
#
# Revision: 0
# Processed by: cddbd v1.5.2PL0 Copyright (c) Steve Scherf et al.
# Submitted via: CDex 1.70beta2
#
DISCID=cb0e740f
DTITLE=Mojo Blues Band - Walk the bridge [CD2]
DYEAR=2014
DGENRE=Blues
TTITLE0=My heart goes diddely bum
TTITLE1=The Blues is all i wanna sing
TTITLE2=You turned my world around
TTITLE3=Black train
TTITLE4=I feel like going home
TTITLE5=Movin out of town
TTITLE6=She's a hot mamacita (alt. take)
TTITLE7=I'm New Orleans bound
TTITLE8=High blood presure Boogie
TTITLE9=Please, stay as long as you can
TTITLE10=Whale of a time
TTITLE11=Siggi's lap steel Blues
TTITLE12=Blue guitar stomp
TTITLE13=Put yourself in my place
TTITLE14=Walk the bridge-radio edit
EXTD=YEAR: 2014
EXTT0=
EXTT1=
EXTT2=
EXTT3=
EXTT4=
EXTT5=
EXTT6=
EXTT7=
EXTT8=
EXTT9=
EXTT10=
EXTT11=
EXTT12=
EXTT13=
EXTT14=
PLAYORDER=
